<mxfile host="app.diagrams.net" agent="Mozilla/5.0 (Windows NT 10.0; Win64; x64) AppleWebKit/537.36 (KHTML, like Gecko) Chrome/136.0.0.0 Safari/537.36 Edg/136.0.0.0" version="27.0.2">
  <diagram name="第 1 页" id="w2nT-iUTn9i36ktSz20z">
    <mxGraphModel dx="2121" dy="1104" grid="0" gridSize="10" guides="1" tooltips="1" connect="1" arrows="0" fold="1" page="0" pageScale="1" pageWidth="1390" pageHeight="980" background="light-dark(#ffffff, #fdfcfc)" math="0" shadow="0">
      <root>
        <mxCell id="0" />
        <mxCell id="1" parent="0" />
        <mxCell id="XZvq0Oxyv5VT_-ZjG8Fj-40" style="edgeStyle=orthogonalEdgeStyle;rounded=0;orthogonalLoop=1;jettySize=auto;html=1;exitX=1;exitY=0.5;exitDx=0;exitDy=0;entryX=0;entryY=0.5;entryDx=0;entryDy=0;fontSize=14;fontStyle=1;labelBackgroundColor=none;strokeColor=#23445D;fontColor=default;endArrow=none;startFill=0;" edge="1" parent="1" source="XZvq0Oxyv5VT_-ZjG8Fj-1" target="XZvq0Oxyv5VT_-ZjG8Fj-2">
          <mxGeometry relative="1" as="geometry" />
        </mxCell>
        <mxCell id="XZvq0Oxyv5VT_-ZjG8Fj-41" style="edgeStyle=orthogonalEdgeStyle;rounded=0;orthogonalLoop=1;jettySize=auto;html=1;exitX=1;exitY=0.5;exitDx=0;exitDy=0;entryX=0;entryY=0.5;entryDx=0;entryDy=0;fontSize=14;fontStyle=0;labelBackgroundColor=none;strokeColor=#23445D;fontColor=default;endArrow=none;startFill=0;" edge="1" parent="1" source="XZvq0Oxyv5VT_-ZjG8Fj-1" target="XZvq0Oxyv5VT_-ZjG8Fj-3">
          <mxGeometry relative="1" as="geometry" />
        </mxCell>
        <mxCell id="XZvq0Oxyv5VT_-ZjG8Fj-1" value="大型语言模型中的&lt;div&gt;幻觉缓解技术&lt;/div&gt;" style="rounded=1;whiteSpace=wrap;html=1;fontSize=16;fontStyle=1;labelBackgroundColor=none;fillColor=#182E3E;strokeColor=#FFFFFF;fontColor=#FFFFFF;" vertex="1" parent="1">
          <mxGeometry x="-40" y="440" width="160" height="80" as="geometry" />
        </mxCell>
        <mxCell id="XZvq0Oxyv5VT_-ZjG8Fj-10" style="edgeStyle=orthogonalEdgeStyle;rounded=0;orthogonalLoop=1;jettySize=auto;html=1;exitX=1;exitY=0.5;exitDx=0;exitDy=0;entryX=0;entryY=0.5;entryDx=0;entryDy=0;endArrow=none;startFill=0;fontSize=14;fontStyle=1;labelBackgroundColor=none;strokeColor=#23445D;fontColor=default;" edge="1" parent="1" source="XZvq0Oxyv5VT_-ZjG8Fj-2" target="XZvq0Oxyv5VT_-ZjG8Fj-9">
          <mxGeometry relative="1" as="geometry" />
        </mxCell>
        <mxCell id="XZvq0Oxyv5VT_-ZjG8Fj-36" style="edgeStyle=orthogonalEdgeStyle;rounded=0;orthogonalLoop=1;jettySize=auto;html=1;exitX=1;exitY=0.5;exitDx=0;exitDy=0;entryX=0;entryY=0.5;entryDx=0;entryDy=0;fontSize=14;fontStyle=1;labelBackgroundColor=none;strokeColor=#23445D;fontColor=default;endArrow=none;startFill=0;" edge="1" parent="1" source="XZvq0Oxyv5VT_-ZjG8Fj-2" target="XZvq0Oxyv5VT_-ZjG8Fj-17">
          <mxGeometry relative="1" as="geometry" />
        </mxCell>
        <mxCell id="XZvq0Oxyv5VT_-ZjG8Fj-38" style="edgeStyle=orthogonalEdgeStyle;rounded=0;orthogonalLoop=1;jettySize=auto;html=1;exitX=1;exitY=0.5;exitDx=0;exitDy=0;entryX=0;entryY=0.5;entryDx=0;entryDy=0;fontSize=14;fontStyle=1;labelBackgroundColor=none;strokeColor=#23445D;fontColor=default;endArrow=none;startFill=0;" edge="1" parent="1" source="XZvq0Oxyv5VT_-ZjG8Fj-2" target="XZvq0Oxyv5VT_-ZjG8Fj-19">
          <mxGeometry relative="1" as="geometry" />
        </mxCell>
        <mxCell id="XZvq0Oxyv5VT_-ZjG8Fj-2" value="提示工程&amp;nbsp;" style="rounded=1;whiteSpace=wrap;html=1;fontSize=14;fontStyle=1;labelBackgroundColor=none;fillColor=#182E3E;strokeColor=#FFFFFF;fontColor=#FFFFFF;" vertex="1" parent="1">
          <mxGeometry x="180" y="250" width="120" height="60" as="geometry" />
        </mxCell>
        <mxCell id="XZvq0Oxyv5VT_-ZjG8Fj-42" style="edgeStyle=orthogonalEdgeStyle;rounded=0;orthogonalLoop=1;jettySize=auto;html=1;exitX=1;exitY=0.5;exitDx=0;exitDy=0;entryX=0;entryY=0.5;entryDx=0;entryDy=0;fontSize=14;fontStyle=1;labelBackgroundColor=none;strokeColor=#23445D;fontColor=default;endArrow=none;startFill=0;" edge="1" parent="1" source="XZvq0Oxyv5VT_-ZjG8Fj-3" target="XZvq0Oxyv5VT_-ZjG8Fj-21">
          <mxGeometry relative="1" as="geometry" />
        </mxCell>
        <mxCell id="XZvq0Oxyv5VT_-ZjG8Fj-46" style="edgeStyle=orthogonalEdgeStyle;rounded=0;orthogonalLoop=1;jettySize=auto;html=1;exitX=1;exitY=0.5;exitDx=0;exitDy=0;entryX=0;entryY=0.5;entryDx=0;entryDy=0;fontSize=14;fontStyle=1;labelBackgroundColor=none;strokeColor=#23445D;fontColor=default;endArrow=none;startFill=0;" edge="1" parent="1" source="XZvq0Oxyv5VT_-ZjG8Fj-3" target="XZvq0Oxyv5VT_-ZjG8Fj-24">
          <mxGeometry relative="1" as="geometry" />
        </mxCell>
        <mxCell id="XZvq0Oxyv5VT_-ZjG8Fj-48" style="edgeStyle=orthogonalEdgeStyle;rounded=0;orthogonalLoop=1;jettySize=auto;html=1;exitX=1;exitY=0.5;exitDx=0;exitDy=0;entryX=0;entryY=0.5;entryDx=0;entryDy=0;fontSize=14;fontStyle=1;labelBackgroundColor=none;strokeColor=#23445D;fontColor=default;endArrow=none;startFill=0;" edge="1" parent="1" source="XZvq0Oxyv5VT_-ZjG8Fj-3" target="XZvq0Oxyv5VT_-ZjG8Fj-25">
          <mxGeometry relative="1" as="geometry" />
        </mxCell>
        <mxCell id="XZvq0Oxyv5VT_-ZjG8Fj-50" style="edgeStyle=orthogonalEdgeStyle;rounded=0;orthogonalLoop=1;jettySize=auto;html=1;exitX=1;exitY=0.5;exitDx=0;exitDy=0;entryX=0;entryY=0.5;entryDx=0;entryDy=0;labelBackgroundColor=none;strokeColor=#23445D;fontColor=default;endArrow=none;startFill=0;fontSize=14;" edge="1" parent="1" source="XZvq0Oxyv5VT_-ZjG8Fj-3" target="XZvq0Oxyv5VT_-ZjG8Fj-23">
          <mxGeometry relative="1" as="geometry" />
        </mxCell>
        <mxCell id="XZvq0Oxyv5VT_-ZjG8Fj-3" value="模型开发&amp;nbsp;" style="rounded=1;whiteSpace=wrap;html=1;fontSize=14;fontStyle=1;labelBackgroundColor=none;fillColor=#182E3E;strokeColor=#FFFFFF;fontColor=#FFFFFF;" vertex="1" parent="1">
          <mxGeometry x="180" y="710" width="120" height="60" as="geometry" />
        </mxCell>
        <mxCell id="XZvq0Oxyv5VT_-ZjG8Fj-29" style="edgeStyle=orthogonalEdgeStyle;rounded=0;orthogonalLoop=1;jettySize=auto;html=1;exitX=1;exitY=0.5;exitDx=0;exitDy=0;entryX=0;entryY=0.5;entryDx=0;entryDy=0;fontSize=14;fontStyle=0;labelBackgroundColor=none;strokeColor=#23445D;fontColor=default;endArrow=none;startFill=0;" edge="1" parent="1" source="XZvq0Oxyv5VT_-ZjG8Fj-4" target="XZvq0Oxyv5VT_-ZjG8Fj-12">
          <mxGeometry relative="1" as="geometry" />
        </mxCell>
        <mxCell id="XZvq0Oxyv5VT_-ZjG8Fj-4" value="生成前" style="rounded=0;whiteSpace=wrap;html=1;fontSize=14;fontStyle=0;labelBackgroundColor=none;fillColor=#182E3E;strokeColor=#FFFFFF;fontColor=#FFFFFF;" vertex="1" parent="1">
          <mxGeometry x="510" y="170" width="120" height="40" as="geometry" />
        </mxCell>
        <mxCell id="XZvq0Oxyv5VT_-ZjG8Fj-30" style="edgeStyle=orthogonalEdgeStyle;rounded=0;orthogonalLoop=1;jettySize=auto;html=1;exitX=1;exitY=0.5;exitDx=0;exitDy=0;entryX=0;entryY=0.5;entryDx=0;entryDy=0;fontSize=14;fontStyle=0;labelBackgroundColor=none;strokeColor=#23445D;fontColor=default;endArrow=none;startFill=0;" edge="1" parent="1" source="XZvq0Oxyv5VT_-ZjG8Fj-5" target="XZvq0Oxyv5VT_-ZjG8Fj-13">
          <mxGeometry relative="1" as="geometry" />
        </mxCell>
        <mxCell id="XZvq0Oxyv5VT_-ZjG8Fj-5" value="生成中" style="rounded=0;whiteSpace=wrap;html=1;fontSize=14;fontStyle=0;labelBackgroundColor=none;fillColor=#182E3E;strokeColor=#FFFFFF;fontColor=#FFFFFF;" vertex="1" parent="1">
          <mxGeometry x="510" y="220" width="120" height="40" as="geometry" />
        </mxCell>
        <mxCell id="XZvq0Oxyv5VT_-ZjG8Fj-31" style="edgeStyle=orthogonalEdgeStyle;rounded=0;orthogonalLoop=1;jettySize=auto;html=1;exitX=1;exitY=0.5;exitDx=0;exitDy=0;entryX=0;entryY=0.5;entryDx=0;entryDy=0;fontSize=14;fontStyle=0;labelBackgroundColor=none;strokeColor=#23445D;fontColor=default;endArrow=none;startFill=0;" edge="1" parent="1" source="XZvq0Oxyv5VT_-ZjG8Fj-6" target="XZvq0Oxyv5VT_-ZjG8Fj-15">
          <mxGeometry relative="1" as="geometry" />
        </mxCell>
        <mxCell id="XZvq0Oxyv5VT_-ZjG8Fj-6" value="生成后" style="rounded=0;whiteSpace=wrap;html=1;fontSize=14;fontStyle=0;labelBackgroundColor=none;fillColor=#182E3E;strokeColor=#FFFFFF;fontColor=#FFFFFF;" vertex="1" parent="1">
          <mxGeometry x="510" y="280" width="120" height="40" as="geometry" />
        </mxCell>
        <mxCell id="XZvq0Oxyv5VT_-ZjG8Fj-14" style="edgeStyle=orthogonalEdgeStyle;rounded=0;orthogonalLoop=1;jettySize=auto;html=1;exitX=0.75;exitY=1;exitDx=0;exitDy=0;fontSize=14;fontStyle=0;labelBackgroundColor=none;strokeColor=#23445D;fontColor=default;" edge="1" parent="1" source="XZvq0Oxyv5VT_-ZjG8Fj-7">
          <mxGeometry relative="1" as="geometry">
            <mxPoint x="600" y="370" as="targetPoint" />
          </mxGeometry>
        </mxCell>
        <mxCell id="XZvq0Oxyv5VT_-ZjG8Fj-32" style="edgeStyle=orthogonalEdgeStyle;rounded=0;orthogonalLoop=1;jettySize=auto;html=1;exitX=1;exitY=0.5;exitDx=0;exitDy=0;entryX=0;entryY=0.5;entryDx=0;entryDy=0;fontSize=14;fontStyle=0;labelBackgroundColor=none;strokeColor=#23445D;fontColor=default;endArrow=none;startFill=0;" edge="1" parent="1" source="XZvq0Oxyv5VT_-ZjG8Fj-7" target="XZvq0Oxyv5VT_-ZjG8Fj-16">
          <mxGeometry relative="1" as="geometry" />
        </mxCell>
        <mxCell id="XZvq0Oxyv5VT_-ZjG8Fj-7" value="端到端" style="rounded=0;whiteSpace=wrap;html=1;fontSize=14;fontStyle=0;labelBackgroundColor=none;fillColor=#182E3E;strokeColor=#FFFFFF;fontColor=#FFFFFF;" vertex="1" parent="1">
          <mxGeometry x="510" y="330" width="120" height="40" as="geometry" />
        </mxCell>
        <mxCell id="XZvq0Oxyv5VT_-ZjG8Fj-11" style="edgeStyle=orthogonalEdgeStyle;rounded=0;orthogonalLoop=1;jettySize=auto;html=1;exitX=1;exitY=0.5;exitDx=0;exitDy=0;entryX=0;entryY=0.5;entryDx=0;entryDy=0;fontSize=14;fontStyle=1;labelBackgroundColor=none;strokeColor=#23445D;fontColor=default;endArrow=none;startFill=0;" edge="1" parent="1" source="XZvq0Oxyv5VT_-ZjG8Fj-9" target="XZvq0Oxyv5VT_-ZjG8Fj-4">
          <mxGeometry relative="1" as="geometry" />
        </mxCell>
        <mxCell id="XZvq0Oxyv5VT_-ZjG8Fj-33" style="edgeStyle=orthogonalEdgeStyle;rounded=0;orthogonalLoop=1;jettySize=auto;html=1;exitX=1;exitY=0.5;exitDx=0;exitDy=0;entryX=0;entryY=0.5;entryDx=0;entryDy=0;fontSize=14;fontStyle=1;labelBackgroundColor=none;strokeColor=#23445D;fontColor=default;endArrow=none;startFill=0;" edge="1" parent="1" source="XZvq0Oxyv5VT_-ZjG8Fj-9" target="XZvq0Oxyv5VT_-ZjG8Fj-5">
          <mxGeometry relative="1" as="geometry" />
        </mxCell>
        <mxCell id="XZvq0Oxyv5VT_-ZjG8Fj-34" style="edgeStyle=orthogonalEdgeStyle;rounded=0;orthogonalLoop=1;jettySize=auto;html=1;exitX=1;exitY=0.5;exitDx=0;exitDy=0;entryX=0;entryY=0.5;entryDx=0;entryDy=0;fontSize=14;fontStyle=1;labelBackgroundColor=none;strokeColor=#23445D;fontColor=default;endArrow=none;startFill=0;" edge="1" parent="1" source="XZvq0Oxyv5VT_-ZjG8Fj-9" target="XZvq0Oxyv5VT_-ZjG8Fj-6">
          <mxGeometry relative="1" as="geometry" />
        </mxCell>
        <mxCell id="XZvq0Oxyv5VT_-ZjG8Fj-35" style="edgeStyle=orthogonalEdgeStyle;rounded=0;orthogonalLoop=1;jettySize=auto;html=1;exitX=1;exitY=0.5;exitDx=0;exitDy=0;entryX=0;entryY=0.5;entryDx=0;entryDy=0;fontSize=14;fontStyle=1;labelBackgroundColor=none;strokeColor=#23445D;fontColor=default;endArrow=none;startFill=0;" edge="1" parent="1" source="XZvq0Oxyv5VT_-ZjG8Fj-9" target="XZvq0Oxyv5VT_-ZjG8Fj-7">
          <mxGeometry relative="1" as="geometry" />
        </mxCell>
        <mxCell id="XZvq0Oxyv5VT_-ZjG8Fj-9" value="检索增强生成" style="rounded=1;whiteSpace=wrap;html=1;fontSize=14;fontStyle=1;labelBackgroundColor=none;fillColor=#182E3E;strokeColor=#FFFFFF;fontColor=#FFFFFF;" vertex="1" parent="1">
          <mxGeometry x="340" y="210" width="120" height="60" as="geometry" />
        </mxCell>
        <mxCell id="XZvq0Oxyv5VT_-ZjG8Fj-12" value="LLM增强器&lt;div&gt;FreshPrompt&lt;/div&gt;" style="rounded=0;whiteSpace=wrap;html=1;fontSize=14;fontStyle=0;labelBackgroundColor=none;fillColor=#182E3E;strokeColor=#FFFFFF;fontColor=#FFFFFF;" vertex="1" parent="1">
          <mxGeometry x="680" y="120" width="120" height="40" as="geometry" />
        </mxCell>
        <mxCell id="XZvq0Oxyv5VT_-ZjG8Fj-13" value="知识检索&lt;div&gt;分解查询框架 (D&amp;amp;Q)&lt;/div&gt;&lt;div&gt;EVER&lt;/div&gt;" style="rounded=0;whiteSpace=wrap;html=1;fontSize=14;fontStyle=0;labelBackgroundColor=none;fillColor=#182E3E;strokeColor=#FFFFFF;fontColor=#FFFFFF;" vertex="1" parent="1">
          <mxGeometry x="680" y="171" width="120" height="78" as="geometry" />
        </mxCell>
        <mxCell id="XZvq0Oxyv5VT_-ZjG8Fj-15" value="RARR&lt;div&gt;高熵词识别与替换&lt;/div&gt;" style="rounded=0;whiteSpace=wrap;html=1;fontSize=14;fontStyle=0;labelBackgroundColor=none;fillColor=#182E3E;strokeColor=#FFFFFF;fontColor=#FFFFFF;" vertex="1" parent="1">
          <mxGeometry x="680" y="255" width="120" height="50" as="geometry" />
        </mxCell>
        <mxCell id="XZvq0Oxyv5VT_-ZjG8Fj-16" value="检索增强生成 (RAG)" style="rounded=0;whiteSpace=wrap;html=1;fontSize=14;fontStyle=0;labelBackgroundColor=none;fillColor=#182E3E;strokeColor=#FFFFFF;fontColor=#FFFFFF;" vertex="1" parent="1">
          <mxGeometry x="680" y="330" width="120" height="40" as="geometry" />
        </mxCell>
        <mxCell id="XZvq0Oxyv5VT_-ZjG8Fj-37" style="edgeStyle=orthogonalEdgeStyle;rounded=0;orthogonalLoop=1;jettySize=auto;html=1;exitX=1;exitY=0.5;exitDx=0;exitDy=0;fontSize=14;fontStyle=0;labelBackgroundColor=none;strokeColor=#23445D;fontColor=default;endArrow=none;startFill=0;" edge="1" parent="1" source="XZvq0Oxyv5VT_-ZjG8Fj-17" target="XZvq0Oxyv5VT_-ZjG8Fj-18">
          <mxGeometry relative="1" as="geometry" />
        </mxCell>
        <mxCell id="XZvq0Oxyv5VT_-ZjG8Fj-17" value="通过反馈和推理的自我优化" style="rounded=1;whiteSpace=wrap;html=1;fontSize=14;fontStyle=1;labelBackgroundColor=none;fillColor=#182E3E;strokeColor=#FFFFFF;fontColor=#FFFFFF;" vertex="1" parent="1">
          <mxGeometry x="340" y="410" width="120" height="60" as="geometry" />
        </mxCell>
        <mxCell id="XZvq0Oxyv5VT_-ZjG8Fj-18" value="提示GPT-3使其可靠&lt;div&gt;ChatProtect&lt;/div&gt;&lt;div&gt;自我反思方法论&lt;/div&gt;&lt;div&gt;结构化比较推理&lt;/div&gt;&lt;div&gt;心灵之镜&lt;/div&gt;&lt;div&gt;DRESS&lt;/div&gt;&lt;div&gt;MixAlign&lt;/div&gt;&lt;div&gt;CoVe&lt;/div&gt;&lt;div&gt;CoNLI&amp;nbsp;&lt;/div&gt;" style="rounded=0;whiteSpace=wrap;html=1;fontSize=14;fontStyle=0;labelBackgroundColor=none;fillColor=#182E3E;strokeColor=#FFFFFF;fontColor=#FFFFFF;" vertex="1" parent="1">
          <mxGeometry x="645" y="380" width="190" height="170" as="geometry" />
        </mxCell>
        <mxCell id="XZvq0Oxyv5VT_-ZjG8Fj-39" style="edgeStyle=orthogonalEdgeStyle;rounded=0;orthogonalLoop=1;jettySize=auto;html=1;exitX=1;exitY=0.5;exitDx=0;exitDy=0;entryX=0;entryY=0.5;entryDx=0;entryDy=0;fontSize=14;fontStyle=0;labelBackgroundColor=none;strokeColor=#23445D;fontColor=default;endArrow=none;startFill=0;" edge="1" parent="1" source="XZvq0Oxyv5VT_-ZjG8Fj-19" target="XZvq0Oxyv5VT_-ZjG8Fj-20">
          <mxGeometry relative="1" as="geometry" />
        </mxCell>
        <mxCell id="XZvq0Oxyv5VT_-ZjG8Fj-19" value="提示调整" style="rounded=1;whiteSpace=wrap;html=1;fontSize=14;fontStyle=1;labelBackgroundColor=none;fillColor=#182E3E;strokeColor=#FFFFFF;fontColor=#FFFFFF;" vertex="1" parent="1">
          <mxGeometry x="340" y="520" width="120" height="60" as="geometry" />
        </mxCell>
        <mxCell id="XZvq0Oxyv5VT_-ZjG8Fj-20" value="UPRISE&lt;div&gt;SynTra&lt;/div&gt;" style="rounded=0;whiteSpace=wrap;html=1;fontSize=14;fontStyle=0;labelBackgroundColor=none;fillColor=#182E3E;strokeColor=#FFFFFF;fontColor=#FFFFFF;" vertex="1" parent="1">
          <mxGeometry x="680" y="560" width="120" height="60" as="geometry" />
        </mxCell>
        <mxCell id="XZvq0Oxyv5VT_-ZjG8Fj-43" style="edgeStyle=orthogonalEdgeStyle;rounded=0;orthogonalLoop=1;jettySize=auto;html=1;exitX=1;exitY=0.5;exitDx=0;exitDy=0;entryX=0;entryY=0.5;entryDx=0;entryDy=0;fontSize=14;fontStyle=0;labelBackgroundColor=none;strokeColor=#23445D;fontColor=default;endArrow=none;startFill=0;" edge="1" parent="1" source="XZvq0Oxyv5VT_-ZjG8Fj-21" target="XZvq0Oxyv5VT_-ZjG8Fj-22">
          <mxGeometry relative="1" as="geometry" />
        </mxCell>
        <mxCell id="XZvq0Oxyv5VT_-ZjG8Fj-21" value="引入新的解码策略" style="rounded=1;whiteSpace=wrap;html=1;fontSize=14;fontStyle=1;labelBackgroundColor=none;fillColor=#182E3E;strokeColor=#FFFFFF;fontColor=#FFFFFF;" vertex="1" parent="1">
          <mxGeometry x="350" y="620" width="120" height="60" as="geometry" />
        </mxCell>
        <mxCell id="XZvq0Oxyv5VT_-ZjG8Fj-22" value="CAD&lt;div&gt;DoLa&lt;/div&gt;&lt;div&gt;推理时干预 (ITI)&lt;/div&gt;" style="rounded=0;whiteSpace=wrap;html=1;fontSize=14;fontStyle=0;labelBackgroundColor=none;fillColor=#182E3E;strokeColor=#FFFFFF;fontColor=#FFFFFF;" vertex="1" parent="1">
          <mxGeometry x="680" y="640" width="120" height="60" as="geometry" />
        </mxCell>
        <mxCell id="XZvq0Oxyv5VT_-ZjG8Fj-45" style="edgeStyle=orthogonalEdgeStyle;rounded=0;orthogonalLoop=1;jettySize=auto;html=1;exitX=1;exitY=0.5;exitDx=0;exitDy=0;entryX=0;entryY=0.5;entryDx=0;entryDy=0;fontSize=14;fontStyle=0;labelBackgroundColor=none;strokeColor=#23445D;fontColor=default;endArrow=none;startFill=0;" edge="1" parent="1" source="XZvq0Oxyv5VT_-ZjG8Fj-23" target="XZvq0Oxyv5VT_-ZjG8Fj-26">
          <mxGeometry relative="1" as="geometry" />
        </mxCell>
        <mxCell id="XZvq0Oxyv5VT_-ZjG8Fj-23" value="知识图谱的利用" style="rounded=1;whiteSpace=wrap;html=1;fontSize=14;fontStyle=1;labelBackgroundColor=none;fillColor=#182E3E;strokeColor=#FFFFFF;fontColor=#FFFFFF;" vertex="1" parent="1">
          <mxGeometry x="350" y="710" width="120" height="60" as="geometry" />
        </mxCell>
        <mxCell id="XZvq0Oxyv5VT_-ZjG8Fj-47" style="edgeStyle=orthogonalEdgeStyle;rounded=0;orthogonalLoop=1;jettySize=auto;html=1;exitX=1;exitY=0.5;exitDx=0;exitDy=0;fontSize=14;fontStyle=0;labelBackgroundColor=none;strokeColor=#23445D;fontColor=default;endArrow=none;startFill=0;" edge="1" parent="1" source="XZvq0Oxyv5VT_-ZjG8Fj-24">
          <mxGeometry relative="1" as="geometry">
            <mxPoint x="680" y="819" as="targetPoint" />
          </mxGeometry>
        </mxCell>
        <mxCell id="XZvq0Oxyv5VT_-ZjG8Fj-24" value="引入基于忠实度的损失函数" style="rounded=1;whiteSpace=wrap;html=1;fontSize=14;fontStyle=1;labelBackgroundColor=none;fillColor=#182E3E;strokeColor=#FFFFFF;fontColor=#FFFFFF;" vertex="1" parent="1">
          <mxGeometry x="350" y="789" width="120" height="60" as="geometry" />
        </mxCell>
        <mxCell id="XZvq0Oxyv5VT_-ZjG8Fj-49" style="edgeStyle=orthogonalEdgeStyle;rounded=0;orthogonalLoop=1;jettySize=auto;html=1;exitX=1;exitY=0.5;exitDx=0;exitDy=0;entryX=0;entryY=0.5;entryDx=0;entryDy=0;fontSize=14;fontStyle=0;labelBackgroundColor=none;strokeColor=#23445D;fontColor=default;endArrow=none;startFill=0;" edge="1" parent="1" source="XZvq0Oxyv5VT_-ZjG8Fj-25" target="XZvq0Oxyv5VT_-ZjG8Fj-28">
          <mxGeometry relative="1" as="geometry" />
        </mxCell>
        <mxCell id="XZvq0Oxyv5VT_-ZjG8Fj-25" value="监督微调" style="rounded=1;whiteSpace=wrap;html=1;fontSize=14;fontStyle=1;labelBackgroundColor=none;fillColor=#182E3E;strokeColor=#FFFFFF;fontColor=#FFFFFF;" vertex="1" parent="1">
          <mxGeometry x="350" y="862" width="120" height="60" as="geometry" />
        </mxCell>
        <mxCell id="XZvq0Oxyv5VT_-ZjG8Fj-26" value="RHO&lt;div&gt;FLEEK&lt;/div&gt;" style="rounded=0;whiteSpace=wrap;html=1;fontSize=14;fontStyle=0;labelBackgroundColor=none;fillColor=#182E3E;strokeColor=#FFFFFF;fontColor=#FFFFFF;" vertex="1" parent="1">
          <mxGeometry x="680" y="710" width="120" height="60" as="geometry" />
        </mxCell>
        <mxCell id="XZvq0Oxyv5VT_-ZjG8Fj-27" value="THAM框架&lt;div&gt;损失加权方法&lt;/div&gt;" style="rounded=0;whiteSpace=wrap;html=1;fontSize=14;fontStyle=0;labelBackgroundColor=none;fillColor=#182E3E;strokeColor=#FFFFFF;fontColor=#FFFFFF;" vertex="1" parent="1">
          <mxGeometry x="680" y="789" width="120" height="60" as="geometry" />
        </mxCell>
        <mxCell id="XZvq0Oxyv5VT_-ZjG8Fj-28" value="知识注入与师生方法&lt;div&gt;HAR&lt;/div&gt;&lt;div&gt;为真实性微调语言模型&lt;/div&gt;&lt;div&gt;BEINFO&lt;/div&gt;&lt;div&gt;R-Tuning&lt;/div&gt;&lt;div&gt;TWEAK&lt;/div&gt;" style="rounded=0;whiteSpace=wrap;html=1;fontSize=14;fontStyle=0;labelBackgroundColor=none;fillColor=#182E3E;strokeColor=#FFFFFF;fontColor=#FFFFFF;" vertex="1" parent="1">
          <mxGeometry x="645" y="862" width="190" height="130" as="geometry" />
        </mxCell>
      </root>
    </mxGraphModel>
  </diagram>
</mxfile>
